<?xml version="1.0" encoding="UTF-8"?> <!-- Generator: Adobe Illustrator 24.0.1, SVG Export Plug-In . SVG Version: 6.00 Build 0) --> <svg xmlns="http://www.w3.org/2000/svg" xmlns:xlink="http://www.w3.org/1999/xlink" id="Слой_1" x="0px" y="0px" viewBox="0 0 75 96" style="enable-background:new 0 0 75 96;" xml:space="preserve"> <style type="text/css"> .st0{fill:#ffffff;} </style> <path class="st0" d="M75,4.5v86.3c-0.4,1-1,2-1.7,2.7c-0.8,0.8-1.7,1.4-2.7,1.7H4.5c-1-0.4-2-1-2.7-1.7C1,92.7,0.4,91.8,0,90.8V4.5 C0.8,2.3,2.3,0.8,4.5,0h66.1c1,0.4,2,1,2.7,1.7C74,2.5,74.6,3.4,75,4.5L75,4.5z M72.3,47.7c0-13.7,0-27.5,0-41.2 c0-2.7-1.1-3.8-3.8-3.8H6.6c-2.9,0-3.9,1-3.9,4v82c0,2.9,1.1,3.9,4,3.9h61.6c3.1,0,4.1-1,4.1-4.1C72.3,74.9,72.3,61.3,72.3,47.7z"></path> <path class="st0" d="M10.3,10.1v19.2c0.6,0,1.1,0.1,1.6,0.1h51.3c0.7,0,1.4,0.1,1.8-0.9c0.1-0.3,0.9-0.6,1.4-0.5 c0.2,0.1,0.4,0.2,0.6,0.4c0.2,0.2,0.3,0.4,0.3,0.6c0.3,2,0.1,3.1-2.3,3.1C46.7,32,28.4,32,10,32c-2.2,0-2.5-0.3-2.5-2.5 c0-6.5,0-13.1,0-19.6c0-2.3,0.2-2.5,2.4-2.5c10.8,0,21.5,0,32.3,0c0.3,0,0.8-0.1,1,0.1c0.4,0.3,1,0.8,1,1.2c0,0.4-0.5,1-0.9,1.3 c-0.4,0.2-1,0.1-1.5,0.1L10.3,10.1L10.3,10.1z"></path> <path class="st0" d="M50.9,71.9c0-4.4,0-8.8,0-13.2c0-2.4,1.1-3.5,3.6-3.5c3.4,0,6.8,0,10.3,0c2.3,0,3.4,1.1,3.4,3.4c0,9,0,18,0,27 c0,2.1-1.1,3.3-3.2,3.3c-3.6,0.1-7.2,0.1-10.8,0c-2.1,0-3.2-1.2-3.2-3.4C50.9,80.9,50.9,76.4,50.9,71.9z M65.5,71.9 c0-4.3,0-8.5,0-12.8c0-1-0.3-1.4-1.3-1.4c-3.1,0.1-6.3,0.1-9.4,0c-1,0-1.3,0.3-1.3,1.3c0,8.6,0,17.2,0,25.9c0,1,0.3,1.3,1.3,1.3 c3.1,0,6.3-0.1,9.4,0c1.1,0,1.4-0.3,1.3-1.4C65.5,80.5,65.5,76.2,65.5,71.9L65.5,71.9z"></path> <path class="st0" d="M37.5,73.7c1.8,0,3.7,0,5.5,0c2,0.1,3.1,1.1,3.1,3.2c0,2.9,0,5.9,0,8.8c0,1.9-1.1,3.1-3.1,3.1 c-3.7,0.1-7.3,0.1-11,0c-2.1,0-3.1-1.3-3.2-3.3c0-2.8,0-5.7,0-8.5c0-2.1,1.2-3.2,3.2-3.3C34,73.7,35.8,73.7,37.5,73.7L37.5,73.7z M43.5,76.4c-3.8,0-7.4,0-11,0c-0.3,0-0.8,0.7-0.8,1c-0.1,2.5,0,5.1-0.1,7.6c0,0.8,0.3,1.1,1.1,1.1c1.5,0,3.1,0,4.6,0h6.1V76.4z"></path> <path class="st0" d="M15.8,88.7c-1.8,0-3.6,0-5.4,0c-2.1,0-3.2-1.1-3.3-3.2c0-2.9,0-5.8,0-8.6c0-2,1.2-3.2,3.3-3.3 c3.6,0,7.1,0,10.7,0c2.1,0,3.2,1.2,3.2,3.3c0,2.9,0,5.8,0,8.6c0,2.1-1.1,3.2-3.2,3.2C19.4,88.8,17.6,88.7,15.8,88.7z M21.7,76.3 c-3.8,0-7.4,0-11.1,0c-0.3,0-0.7,0.6-0.7,1c-0.1,1.8,0,3.6,0,5.4c0,3.4,0,3.4,3.3,3.4h8.5V76.3z"></path> <path class="st0" d="M59.1,51.5c-1.8,0-3.6,0-5.4,0c-2,0-3.1-1.2-3.1-3.2c0-2.9,0-5.9,0-8.8c0-1.9,1.1-3.1,3-3.1 c3.7-0.1,7.4-0.1,11.2,0c1.9,0,3,1.3,3,3.2c0,2.9,0,5.8,0,8.6c0,2.1-1.1,3.2-3.2,3.3C62.8,51.6,60.9,51.5,59.1,51.5z M53.2,39.1 c0,3.1,0,6,0,8.8c0,0.3,0.6,0.9,0.9,0.9c3.3,0.1,6.6,0,9.9,0c0.8,0,1-0.3,1-1.1c0-2.6,0-5.1,0-7.7c0-0.3-0.5-1-0.7-1 C60.7,39.1,57.1,39.1,53.2,39.1z"></path> <path class="st0" d="M16.1,55.1c1.8,0,3.6,0,5.4,0c2,0,3.1,1.2,3.2,3.2c0,2.9,0,5.9,0,8.8c0,1.9-1.2,3.1-3.2,3.1 c-3.6,0-7.2,0-10.9,0c-2,0-3.1-1.2-3.1-3.2c0-2.9,0-5.9,0-8.8c0-2,1.2-3.1,3.2-3.1C12.4,55,14.3,55.1,16.1,55.1z M16.1,57.7 c-1.6,0-3.3,0-4.9,0c-0.8,0-1.1,0.3-1.1,1.1c0,2.5,0,5.1,0,7.6c0,0.8,0.2,1.2,1.1,1.2c3.3,0,6.5,0,9.8,0c0.9,0,1.1-0.4,1.1-1.2 c0-2.5-0.1-4.9,0-7.4c0-1-0.4-1.3-1.3-1.2C19.2,57.7,17.6,57.7,16.1,57.7z"></path> <path class="st0" d="M16.1,51.5c-1.8,0-3.6,0-5.4,0c-2,0-3.2-1.1-3.2-3.1c-0.1-2.9-0.1-5.8,0-8.8c0-1.9,1.2-3.1,3.2-3.2 c3.6,0,7.2,0,10.9,0c2,0,3.1,1.2,3.2,3.2c0,2.9,0,5.9,0,8.8c0,2-1.2,3.1-3.2,3.1C19.8,51.6,17.9,51.5,16.1,51.5L16.1,51.5z M10.2,48.9c3.8,0,7.5,0,11.1,0c0.3,0,0.7-0.6,0.7-1c0.1-2.6,0-5.2,0-7.7c0-0.8-0.3-1.1-1.1-1.1c-3.3,0-6.5,0-9.8,0 c-0.3,0-1,0.5-1,0.7C10.2,42.8,10.2,45.7,10.2,48.9z"></path> <path class="st0" d="M37.7,70.2c-1.8,0-3.6,0-5.4,0c-2,0-3.2-1.2-3.2-3.1c0-3,0-6,0-8.9c0-1.8,1.2-3,3-3c3.7,0,7.4,0,11.2,0 c1.9,0,3,1.2,3,3.1c0,3,0,6,0,8.9c0,1.8-1.2,3-3,3C41.5,70.2,39.6,70.2,37.7,70.2z M37.8,67.6c1.6,0,3.3,0,4.9,0 c0.7,0,1.1-0.2,1.1-1c0-2.6,0-5.3-0.1-7.9c0-0.3-0.6-0.9-0.9-0.9c-3.3-0.1-6.6,0-10,0c-0.8,0-1,0.4-1,1.1c0,2.6,0,5.2,0,7.7 c0,0.8,0.3,1,1.1,1C34.5,67.6,36.1,67.6,37.8,67.6L37.8,67.6z"></path> <path class="st0" d="M37.6,51.5c-1.8,0-3.6,0-5.4,0c-2,0-3.2-1.1-3.2-3.1c0-2.9,0-5.8,0-8.8c0-2,1.2-3.2,3.2-3.2 c3.6-0.1,7.2-0.1,10.9,0c2,0,3.2,1.2,3.2,3.2c0.1,3,0.1,6,0,8.9c0,1.8-1.2,2.9-3,3C41.4,51.6,39.5,51.5,37.6,51.5z M31.8,48.8h11.9 c0-3.1,0-6.1,0-9.1c0-0.2-0.6-0.6-0.9-0.6c-3.3,0-6.6-0.1-10,0c-0.3,0-0.9,0.5-0.9,0.8C31.7,42.8,31.8,45.7,31.8,48.8z"></path> <path class="st0" d="M70.8,20.9c0.1,3.1-2,5.5-4.8,5.5c-2.7,0-4.8-2.2-4.9-5.1c-0.1-3,2.1-5.4,4.9-5.4 C68.8,15.9,70.7,17.9,70.8,20.9z M63.8,21c-0.1,1.4,0.7,2.6,2,2.7c1.3,0.1,2.3-0.9,2.4-2.5c0.1-1.5-0.7-2.6-2-2.7 C64.8,18.5,63.9,19.5,63.8,21z"></path> <path class="st0" d="M56,10.2c0,3.1-2,5.3-4.8,5.3c-2.8,0-4.8-2.2-4.8-5.3c0-3.1,2.1-5.2,4.9-5.2C54.2,5.1,56,7.1,56,10.2z M53.4,10.2c0-1.6-0.7-2.5-2-2.5c-1.3,0-2.2,1-2.2,2.6c0,1.5,0.8,2.5,2.1,2.5C52.5,12.8,53.3,11.8,53.4,10.2z"></path> <path class="st0" d="M53.5,26.4c-1.4-0.1-1.9-1.2-1.2-2.4c2-3.6,4-7.2,6-10.8c1.3-2.3,2.6-4.7,3.9-7c0.5-0.9,1.1-1.6,2.1-1 c1,0.6,0.7,1.5,0.3,2.3c-3.3,5.9-6.6,11.9-9.9,17.8C54.3,25.8,53.8,26.1,53.5,26.4z"></path> </svg> 